<?xml version="1.0" standalone="no"?>
<!DOCTYPE svg PUBLIC "-//W3C//DTD SVG 20010904//EN"
 "http://www.w3.org/TR/2001/REC-SVG-20010904/DTD/svg10.dtd">
<svg version="1.0" xmlns="http://www.w3.org/2000/svg"
 width="512.000000pt" height="512.000000pt" viewBox="0 0 512.000000 512.000000"
 preserveAspectRatio="xMidYMid meet">
<metadata>
Created by potrace 1.11, written by Peter Selinger 2001-2013
</metadata>
<g transform="translate(0.000000,512.000000) scale(0.100000,-0.100000)"
fill="#000000" stroke="none">
<path d="M1851 3824 l-1 -922 43 -58 c23 -33 49 -69 57 -81 8 -12 48 -66 88
-121 l72 -99 0 -235 0 -235 -105 -81 -105 -82 -130 0 -130 0 0 -810 0 -810
905 0 905 0 0 810 0 810 -133 0 -132 0 -105 82 -106 81 1 233 0 232 130 182
130 181 1 915 c0 502 -2 914 -5 914 -3 0 -20 -42 -37 -93 -18 -50 -62 -177
-99 -282 -37 -104 -71 -205 -76 -223 -11 -36 -22 -34 -72 12 -15 14 -30 26
-33 26 -3 0 -31 18 -61 40 l-56 40 -254 0 -253 0 -105 -75 c-68 -48 -107 -70
-110 -62 -3 6 -23 64 -44 127 -47 135 -147 420 -166 470 -12 30 -14 -107 -14
-886z"/>
</g>
</svg>
