<?xml version="1.0" standalone="no"?>
<!DOCTYPE svg PUBLIC "-//W3C//DTD SVG 20010904//EN"
 "http://www.w3.org/TR/2001/REC-SVG-20010904/DTD/svg10.dtd">
<svg version="1.0" xmlns="http://www.w3.org/2000/svg"
 width="512.000000pt" height="512.000000pt" viewBox="0 0 512.000000 512.000000"
 preserveAspectRatio="xMidYMid meet">
<metadata>
Created by potrace 1.11, written by Peter Selinger 2001-2013
</metadata>
<g transform="translate(0.000000,512.000000) scale(0.100000,-0.100000)"
fill="#000000" stroke="none">
<path d="M1850 5109 c-179 -35 -339 -158 -417 -319 -48 -100 -63 -157 -66
-263 -2 -44 -8 -81 -14 -85 -6 -4 -313 -7 -682 -6 l-671 1 0 -2219 0 -2218
1963 0 1962 0 0 2217 0 2218 -678 1 c-372 0 -679 3 -681 5 -2 2 -6 49 -9 104
-13 208 -103 366 -273 480 -109 73 -301 110 -434 84z m158 -518 c47 -25 49
-103 5 -137 -29 -22 -81 -17 -108 11 -34 33 -33 78 3 114 30 30 61 34 100 12z"/>
<path d="M4302 4089 c-94 -19 -171 -93 -194 -185 -10 -40 -13 -409 -13 -1782
l0 -1732 128 -127 127 -127 0 -68 0 -68 85 0 c47 0 85 3 86 8 0 4 2 35 2 69
l2 62 127 127 127 127 1 1311 c0 721 0 1401 0 1511 l0 200 83 0 82 0 5 -470 5
-470 83 -1 82 0 -2 555 -3 556 -167 0 -168 -1 0 31 c0 232 -6 291 -30 339 -29
56 -67 91 -130 119 -36 16 -69 20 -165 22 -66 0 -135 -2 -153 -6z"/>
</g>
</svg>
